<svg width="512" height="512" viewBox="0 0 512 512" fill="none" xmlns="http://www.w3.org/2000/svg">
<rect width="512" height="512" rx="40" fill="url(#paint0_linear_12_18)"/>
<path d="M212.718 308.701C207.372 304.698 190 283.347 190 283.347L223.409 266C223.409 266 252.808 288.685 256.817 291.354C260.826 294.023 288.889 306.032 292.898 308.701C296.907 311.37 322.298 332.721 324.971 335.389C327.643 338.058 335.661 356.74 336.998 362.078C338.334 367.415 338.334 388.766 336.998 394.103C335.661 399.441 334.739 379.425 331.652 374.087C328.566 368.75 315.616 358.074 311.607 354.071C307.598 350.068 290.226 338.058 283.544 335.389C276.862 332.721 248.799 327.383 244.79 326.049C240.781 324.714 218.063 312.704 212.718 308.701Z" fill="#ECEAEA"/>
<path d="M200.493 209.574C150.894 240.899 179.609 306.16 179.609 306.16C179.609 306.16 179.609 285.276 225.292 267.003C270.974 248.73 314.046 246.12 336.235 234.373C358.424 222.626 380.612 206.963 394.97 178.248C409.327 149.534 398.885 92.1043 398.885 92.1043C398.885 92.1043 378.002 133.871 345.372 149.534C312.741 165.196 250.091 178.248 200.493 209.574Z" fill="white"/>
<path d="M149.589 72.5261C141.758 71.2209 116.959 66 113.043 66C109.128 66 132.621 102.546 133.927 109.072C135.232 115.598 135.232 141.702 133.927 153.449C132.621 165.196 116.959 216.1 116.959 216.1C116.959 216.1 107.822 253.951 109.128 267.003C110.433 280.055 119.569 310.075 127.401 321.822C135.232 333.569 162.641 354.452 167.862 357.063C173.083 359.673 227.902 377.946 227.902 377.946C227.902 377.946 267.059 387.083 273.585 390.998C280.111 394.914 291.858 404.051 295.773 413.187C299.689 422.324 306.215 448.428 307.52 445.818C308.826 443.207 317.962 427.544 319.267 422.324C320.572 417.103 317.962 392.304 315.352 385.778C312.741 379.252 303.605 367.505 295.773 362.284C287.942 357.063 277.5 351.842 273.585 350.537C269.669 349.232 244.87 344.011 240.954 342.706C237.039 341.4 203.103 337.485 203.103 337.485C203.103 337.485 180.914 334.874 174.388 328.348C167.862 321.822 158.726 300.939 157.421 298.328C156.115 295.718 157.421 273.529 157.421 273.529C157.421 273.529 158.726 248.73 165.252 238.288C171.778 227.847 184.83 203.048 187.441 197.827C190.051 192.606 201.798 163.891 203.103 156.06C204.408 148.229 205.714 131.261 203.103 120.819C200.493 110.377 188.746 93.4095 182.22 88.1887C175.694 82.9678 157.421 73.8313 149.589 72.5261Z" fill="white"/>
<defs>
<linearGradient id="paint0_linear_12_18" x1="8.49999" y1="15" x2="300.5" y2="348.5" gradientUnits="userSpaceOnUse">
<stop stop-color="#4F46E5"/>
<stop offset="1" stop-color="#5994EF"/>
</linearGradient>
</defs>
</svg>
